<?xml version="1.0" encoding="UTF-8" standalone="no"?>
<!-- Created with Inkscape (http://www.inkscape.org/) -->

<svg
   xmlns:dc="http://purl.org/dc/elements/1.1/"
   xmlns:cc="http://creativecommons.org/ns#"
   xmlns:rdf="http://www.w3.org/1999/02/22-rdf-syntax-ns#"
   xmlns:svg="http://www.w3.org/2000/svg"
   xmlns="http://www.w3.org/2000/svg"
   xmlns:sodipodi="http://sodipodi.sourceforge.net/DTD/sodipodi-0.dtd"
   xmlns:inkscape="http://www.inkscape.org/namespaces/inkscape"
   width="1140"
   height="259.6835"
   id="svg3220"
   version="1.1"
   inkscape:version="0.48.4 r9939"
   sodipodi:docname="banner3.svg"
   inkscape:export-filename="/Dev/django-regularcom/static/banner3.png"
   inkscape:export-xdpi="90"
   inkscape:export-ydpi="90">
  <defs
     id="defs3222" />
  <sodipodi:namedview
     id="base"
     pagecolor="#ffffff"
     bordercolor="#666666"
     borderopacity="1.0"
     inkscape:pageopacity="0.0"
     inkscape:pageshadow="2"
     inkscape:zoom="0.7"
     inkscape:cx="339.13225"
     inkscape:cy="7.1871095"
     inkscape:document-units="px"
     inkscape:current-layer="g3927"
     showgrid="false"
     fit-margin-top="0"
     fit-margin-left="0"
     fit-margin-right="0"
     fit-margin-bottom="0"
     inkscape:window-width="1440"
     inkscape:window-height="826"
     inkscape:window-x="0"
     inkscape:window-y="26"
     inkscape:window-maximized="1"
     borderlayer="true"
     showguides="true"
     inkscape:guide-bbox="true" />
  <metadata
     id="metadata3225">
    <rdf:RDF>
      <cc:Work
         rdf:about="">
        <dc:format>image/svg+xml</dc:format>
        <dc:type
           rdf:resource="http://purl.org/dc/dcmitype/StillImage" />
        <dc:title />
      </cc:Work>
    </rdf:RDF>
  </metadata>
  <g
     inkscape:label="Layer 1"
     inkscape:groupmode="layer"
     id="layer1"
     transform="translate(81.00351,-254.77401)">
    <text
       xml:space="preserve"
       style="font-size:24.57609177px;font-style:normal;font-weight:normal;line-height:125%;letter-spacing:0px;word-spacing:0px;fill:#000000;fill-opacity:1;stroke:none;font-family:Sans"
       x="242.90274"
       y="71.992516"
       id="text3608"
       sodipodi:linespacing="125%"><tspan
         sodipodi:role="line"
         id="tspan3610"
         x="242.90274"
         y="71.992516" /></text>
    <flowRoot
       xml:space="preserve"
       id="flowRoot3655"
       style="font-size:23px;font-style:normal;font-weight:normal;line-height:125%;letter-spacing:0px;word-spacing:0px;fill:#000000;fill-opacity:1;stroke:none;font-family:Sans"
       transform="matrix(1.0685257,0,0,1.0685257,-1.9588516,-29.843964)"><flowRegion
         id="flowRegion3657"><rect
           id="rect3659"
           width="154.55334"
           height="66.670067"
           x="127.27922"
           y="345.01791" /></flowRegion><flowPara
         id="flowPara3661" /></flowRoot>    <g
       id="g4290"
       transform="matrix(0.99857618,0,0,0.99857618,-0.10949127,0.80620259)">
      <g
         id="g3058"
         transform="matrix(0.99468615,0,0,1,-0.41319535,0)">
        <g
           transform="matrix(0.89564093,0,0,0.89564093,53.630656,-10.375565)"
           id="g3065">
          <g
             transform="matrix(0.84824746,0,0,0.84824746,114.23799,70.31623)"
             id="g4083">
            <g
               id="g3280">
              <g
                 transform="translate(20.162028,0.70731224)"
                 id="g3343" />
            </g>
          </g>
        </g>
        <g
           id="g3860"
           transform="matrix(0.99700659,0,0,0.99700659,-0.24004766,1.525616)">
          <g
             id="g3927"
             transform="matrix(0.99501887,0,0,0.99501887,-0.40361702,2.5622822)">
            <g
               id="g3994"
               transform="matrix(1.0012547,0,0,1.0012547,0.10166736,-0.64541491)">
              <g
                 inkscape:label="Layer 1"
                 id="layer1-0"
                 transform="matrix(1.1835585,0,0,1.1835585,446.39841,-251.02036)">
                <g
                   id="g3"
                   transform="matrix(1.2335285,0,0,1.2335285,181.71433,259.68793)" />
                <g
                   id="g67"
                   transform="matrix(1.2335285,0,0,1.2335285,181.71433,259.68793)" />
                <flowRoot
                   xml:space="preserve"
                   id="flowRoot3108"
                   style="font-size:16px;font-style:normal;font-variant:normal;font-weight:normal;font-stretch:normal;line-height:125%;letter-spacing:0px;word-spacing:0px;fill:#000000;fill-opacity:1;stroke:none;font-family:Wargames;-inkscape-font-specification:Wargames"
                   transform="matrix(1.2335285,0,0,1.2335285,181.71433,259.68793)"><flowRegion
                     id="flowRegion3110"><rect
                       id="rect3112"
                       width="111.61501"
                       height="54.861614"
                       x="92.066612"
                       y="283.13638" /></flowRegion><flowPara
                     id="flowPara3114" /></flowRoot>                <text
                   xml:space="preserve"
                   style="font-size:19.73645592px;font-style:normal;font-variant:normal;font-weight:normal;font-stretch:normal;line-height:125%;letter-spacing:0px;word-spacing:0px;fill:#000000;fill-opacity:1;stroke:none;font-family:Wargames;-inkscape-font-specification:Wargames"
                   x="212.05066"
                   y="586.3869"
                   id="text3116"
                   sodipodi:linespacing="125%"><tspan
                     sodipodi:role="line"
                     id="tspan3118"
                     x="212.05066"
                     y="586.3869"
                     style="font-style:normal;font-variant:normal;font-weight:bold;font-stretch:normal;font-family:Bitstream Charter;-inkscape-font-specification:Bitstream Charter Bold" /></text>
                <g
                   id="g3504"
                   transform="matrix(0.99553236,0.09442094,-0.09442094,0.99553236,48.553712,-29.185042)">
                  <path
                     style="fill:#a10d59"
                     inkscape:connector-curvature="0"
                     id="path5"
                     d="m 313.55509,558.18826 c -1.90333,0.14679 -3.65001,0.29605 -5.33008,0.48231 -1.722,0.2171 -3.1677,0.34909 -4.72811,0.39473 -3.06902,0.0728 -6.21082,-0.0555 -10.0804,-0.93378 -1.57398,-0.37253 -4.37656,-1.18049 -7.4246,-3.07766 -2.50283,-1.55301 -4.99703,-3.75239 -6.98794,-6.571 -0.99546,-1.40623 -1.86757,-2.95801 -2.56821,-4.62204 -0.66364,-1.58015 -1.26683,-3.65124 -1.93787,-5.59528 l -3.94976,-11.87148 c -0.66487,-1.96131 -1.273,-3.91398 -2.01065,-5.91477 -0.72532,-1.96624 -1.49997,-3.85477 -2.29067,-5.673 -3.18003,-7.25561 -6.51426,-13.40968 -8.95911,-17.81955 l -2.39922,-4.21003 c -0.007,-0.004 -0.0222,-0.0296 0.0444,-0.0222 l 10.51336,-0.69942 16.38003,-1.20269 c 2.93333,-0.23313 6.05416,-0.50328 9.02079,-0.79439 2.81245,-0.2319 5.71617,-0.13075 8.53725,0.24177 5.6471,0.74135 10.99444,2.65949 14.90473,5.4596 2.15374,1.52094 3.78076,3.24788 4.90081,4.83543 1.12498,1.59002 1.77011,3.02831 2.14634,4.00034 l 1.03369,2.85315 c 0.34909,0.93871 0.69695,1.82809 1.0485,2.67799 0.70065,1.70103 1.41239,3.24788 2.16115,4.73428 1.49997,2.97157 3.15536,5.70013 5.19932,8.92458 -0.29358,-3.80667 -0.60073,-6.98301 -1.17926,-10.26173 -0.28864,-1.63935 -0.64636,-3.30462 -1.10277,-5.08707 -0.2282,-0.8906 -0.48231,-1.81082 -0.76479,-2.77297 -0.30221,-0.99176 -0.54522,-1.8836 -1.00286,-3.12823 -0.47984,-1.27917 -1.32604,-3.19114 -2.80257,-5.28937 -1.46543,-2.097 -3.5908,-4.33462 -6.26756,-6.22562 -4.88354,-3.48225 -11.09559,-5.63845 -17.50994,-6.48712 -3.21581,-0.4231 -6.50069,-0.54029 -9.78311,-0.27014 -3.11713,0.30591 -6.04429,0.56125 -9.00846,0.79932 l -16.31342,1.21133 -13.2777,0.8906 -4.05584,0.25658 -1.64182,0.10361 -0.71915,0.0457 -0.33182,0.0222 c 0.0432,0.0851 0.10978,0.18256 0.16036,0.26891 l 1.34701,2.19321 2.23886,3.69442 1.83425,3.1529 1.63443,2.89632 c 2.38811,4.31365 5.65202,10.36411 8.69021,17.31751 0.75368,1.73804 1.48763,3.53159 2.16114,5.36462 0.66364,1.79725 1.28287,3.77459 1.94651,5.7433 l 3.94482,11.87272 c 0.68584,1.97117 1.20762,3.86094 2.09453,6.01345 0.86717,2.05876 1.94898,3.98676 3.18621,5.73097 2.47199,3.49952 5.56691,6.22439 8.66677,8.14376 3.77583,2.34123 7.24698,3.32806 9.19965,3.76966 4.80583,1.04726 8.78149,0.59086 12.16506,-0.53289 1.68007,-0.55632 3.30092,-1.37908 4.70344,-2.23515 1.46297,-0.85113 2.9506,-1.77628 4.56406,-2.79764 z" />
                  <g
                     transform="matrix(1.2335285,0,0,1.2335285,181.71433,259.68793)"
                     id="g7">
                    <path
                       style="fill:#a10d59"
                       inkscape:connector-curvature="0"
                       id="path9"
                       d="m 151.475,219.89 c 1.481,0.45 2.844,0.85 4.167,1.205 1.33,0.346 2.575,0.687 4.018,0.893 2.821,0.379 5.955,0.263 9.668,-0.935 1.002,-0.327 2.493,-0.877 4.243,-1.763 0.873,-0.444 1.81,-0.976 2.774,-1.604 l 0.649,-0.434 c 0.254,-0.171 0.504,-0.35 0.755,-0.534 0.502,-0.365 0.998,-0.753 1.49,-1.161 0.982,-0.816 1.943,-1.714 2.857,-2.697 3.677,-3.904 6.599,-9.248 7.699,-15.192 0.282,-1.469 0.451,-3.016 0.516,-4.486 l 0.215,-4.227 0.428,-8.445 0.418,-8.254 c 0.136,-2.613 0.399,-5.174 0.727,-7.632 0.657,-4.917 1.549,-9.421 2.388,-13.226 0.844,-3.806 1.646,-6.916 2.227,-9.071 l 0.531,-1.929 0.616,-2.123 0.539,-1.776 0.178,-0.584 0.218,-0.714 0.067,-0.22 c 0.031,-0.055 -0.016,-0.045 -0.058,-0.041 l -0.122,0.008 -0.533,0.036 -6.335,0.459 c -4.335,0.354 -11.452,0.973 -19.895,2.049 -4.225,0.544 -8.781,1.2 -13.492,2.096 -1.178,0.225 -2.366,0.468 -3.561,0.734 -1.184,0.269 -2.4,0.542 -3.666,0.924 -2.488,0.754 -4.893,1.801 -7.142,3.083 -4.506,2.564 -8.374,6.03 -11.44,9.809 -1.536,1.89 -2.884,3.859 -4.035,5.85 -0.288,0.498 -0.565,0.996 -0.829,1.496 l -0.468,0.907 c -0.239,0.474 -0.464,0.943 -0.675,1.406 -1.703,3.696 -2.532,6.906 -2.905,8.636 -0.399,1.866 -0.59,3.57 -0.615,5.154 -0.01,0.396 -0.001,0.785 0.007,1.166 l 0.05,1.065 c 0.04,0.699 0.093,1.379 0.157,2.051 0.257,2.687 0.704,5.234 1.298,8.272 0.899,-2.962 1.603,-5.452 2.132,-8.098 0.132,-0.662 0.254,-1.333 0.365,-2.024 l 0.316,-2.07 c 0.217,-1.381 0.491,-2.858 0.861,-4.504 0.345,-1.525 1.087,-4.374 2.616,-7.681 0.188,-0.414 0.391,-0.833 0.605,-1.258 l 0.419,-0.812 c 0.237,-0.448 0.486,-0.894 0.744,-1.34 1.033,-1.785 2.242,-3.549 3.615,-5.239 2.742,-3.381 6.185,-6.452 10.114,-8.688 1.961,-1.12 4.04,-2.022 6.173,-2.671 1.046,-0.318 2.179,-0.576 3.327,-0.836 1.14,-0.255 2.283,-0.489 3.422,-0.707 4.561,-0.871 9.044,-1.52 13.205,-2.058 8.324,-1.066 15.388,-1.688 19.675,-2.041 l 0.271,-0.023 c 0.011,0 -0.001,0.015 0.003,0.012 l -0.276,1.005 c -0.596,2.206 -1.418,5.38 -2.285,9.275 -0.862,3.896 -1.781,8.512 -2.468,13.621 -0.342,2.555 -0.62,5.234 -0.766,8.013 l -0.422,8.255 -0.432,8.445 -0.216,4.227 c -0.06,1.34 -0.2,2.586 -0.44,3.85 -0.932,5.029 -3.399,9.543 -6.514,12.854 -0.773,0.833 -1.588,1.594 -2.42,2.286 -0.416,0.346 -0.836,0.675 -1.261,0.984 -0.211,0.156 -0.423,0.308 -0.637,0.453 l -0.549,0.368 c -0.816,0.533 -1.607,0.985 -2.347,1.364 -1.482,0.754 -2.74,1.226 -3.585,1.511 -3.13,1.042 -5.685,1.533 -8.189,1.942 -1.228,0.19 -2.573,0.335 -3.92,0.561 -1.349,0.216 -2.746,0.476 -4.265,0.773 z" />
                  </g>
                  <path
                     style="fill:#a10d59"
                     inkscape:connector-curvature="0"
                     id="path11"
                     d="m 333.92681,554.97862 c -19.64887,-24.2117 -62.34376,-52.08204 -62.34376,-52.08204 0,0 46.80254,35.98696 60.66616,56.99888 -0.76355,2.39058 -1.41979,4.69111 -1.94157,6.87076 -2.25242,10.11493 1.06207,9.38468 5.4522,8.93074 0.45023,-33.34104 60.15918,-132.39215 60.15918,-132.39215 0,0 -46.33256,68.34735 -61.99221,111.67381 z" />
                </g>
                <text
                   xml:space="preserve"
                   style="font-size:19.73645592px;font-style:normal;font-weight:normal;line-height:125%;letter-spacing:0px;word-spacing:0px;fill:#000000;fill-opacity:1;stroke:none;font-family:Sans"
                   x="339.91391"
                   y="582.14746"
                   id="text3104"
                   sodipodi:linespacing="125%"><tspan
                     sodipodi:role="line"
                     id="tspan3106"
                     x="339.91391"
                     y="582.14746"
                     style="font-size:17.26939964px;font-style:normal;font-variant:normal;font-weight:normal;font-stretch:normal;font-family:Domestic Manners;-inkscape-font-specification:Domestic Manners">Le choix éthique</tspan></text>
                <g
                   id="g3930"
                   transform="matrix(1.2335285,0,0,1.2335285,169.23889,191.52007)">
                  <text
                     sodipodi:linespacing="125%"
                     id="text3120"
                     y="303.31534"
                     x="141.88347"
                     style="font-size:16px;font-style:normal;font-variant:normal;font-weight:normal;font-stretch:normal;line-height:125%;letter-spacing:0px;word-spacing:0px;fill:#000000;fill-opacity:1;stroke:none;font-family:Wargames;-inkscape-font-specification:Wargames"
                     xml:space="preserve"><tspan
                       style="font-size:24px;font-style:normal;font-variant:normal;font-weight:normal;font-stretch:normal;font-family:Sans;-inkscape-font-specification:Sans"
                       y="303.31534"
                       x="141.88347"
                       id="tspan3122"
                       sodipodi:role="line">Végé</tspan></text>
                  <text
                     sodipodi:linespacing="125%"
                     id="text3124"
                     y="303.31534"
                     x="200.52864"
                     style="font-size:16px;font-style:normal;font-variant:normal;font-weight:normal;font-stretch:normal;line-height:125%;letter-spacing:0px;word-spacing:0px;fill:#a10d59;fill-opacity:1;stroke:none;font-family:Wargames;-inkscape-font-specification:Wargames"
                     xml:space="preserve"><tspan
                       style="font-size:24px;font-style:normal;font-variant:normal;font-weight:normal;font-stretch:normal;fill:#a10d59;fill-opacity:1;font-family:Sans;-inkscape-font-specification:Sans"
                       y="303.31534"
                       x="200.52864"
                       id="tspan3126"
                       sodipodi:role="line">clic</tspan></text>
                </g>
                <g
                   id="g4284"
                   transform="matrix(0.7219762,0,0,0.7219762,131.06686,120.9361)">
                  <text
                     sodipodi:linespacing="125%"
                     id="text3469"
                     y="446.97375"
                     x="436.44644"
                     style="font-size:12.88940716px;font-style:normal;font-weight:normal;line-height:125%;letter-spacing:0px;word-spacing:0px;fill:#a10d59;fill-opacity:1;stroke:none;font-family:Sans"
                     xml:space="preserve"><tspan
                       y="446.97375"
                       x="436.44644"
                       id="tspan3471"
                       sodipodi:role="line">BETA</tspan></text>
                  <rect
                     y="435.46176"
                     x="435.47797"
                     height="13.689817"
                     width="35.468143"
                     id="rect4282"
                     style="fill:none;stroke:#a10d59;stroke-width:0.5;stroke-linecap:butt;stroke-miterlimit:4;stroke-opacity:1;stroke-dasharray:none;stroke-dashoffset:0" />
                </g>
              </g>
              <g
                 transform="matrix(0.90807255,0,0,0.90807255,27.713841,98.680003)"
                 id="g4127">
                <g
                   id="g3987"
                   transform="matrix(1.0609917,0,0,1.0609917,79.312828,-14.971395)">
                  <flowRoot
                     transform="matrix(0.84236874,0,0,0.84236874,308.30726,90.23718)"
                     style="font-size:23px;font-style:normal;font-weight:normal;line-height:125%;letter-spacing:0px;word-spacing:0px;fill:#000000;fill-opacity:1;stroke:none;font-family:Sans"
                     id="flowRoot3612"
                     xml:space="preserve"><flowRegion
                       id="flowRegion3614"><rect
                         style="fill:#000000;fill-opacity:1"
                         y="169.62436"
                         x="-432.34528"
                         height="197.04474"
                         width="573.5116"
                         id="rect3616" /></flowRegion><flowPara
                       style="text-align:justify;text-anchor:start;fill:#000000;fill-opacity:1"
                       id="flowPara3618">Végéclic est une boutique en ligne qui vous propose un grand catalogue de produits vegan (sans aucune matière animale), sous forme de paniers thématiques ou personnalisés !</flowPara></flowRoot>                  <path
                     inkscape:connector-curvature="0"
                     id="path3758"
                     d="m -72.519659,296.68769 0,-78.7943 91.746793,0"
                     style="fill:none;stroke:#a10d59;stroke-width:1.88502884;stroke-linecap:butt;stroke-linejoin:miter;stroke-miterlimit:4;stroke-opacity:1;stroke-dasharray:none" />
                  <path
                     inkscape:connector-curvature="0"
                     id="path3758-3"
                     d="m 441.70417,262.59909 0,78.79431 -91.74678,0"
                     style="fill:none;stroke:#a10d59;stroke-width:1.88502884;stroke-linecap:butt;stroke-linejoin:miter;stroke-miterlimit:4;stroke-opacity:1;stroke-dasharray:none" />
                </g>
              </g>
              <rect
                 style="opacity:0.87000002;fill:#a10d59;fill-opacity:1;stroke:#000000;stroke-width:2.11922622;stroke-linejoin:miter;stroke-miterlimit:4;stroke-opacity:1;stroke-dasharray:none"
                 id="rect3157"
                 width="1153.3584"
                 height="37.048153"
                 x="-79.966797"
                 y="476.29294" />
              <g
                 transform="matrix(0.75972514,0,0,0.75972514,192.84243,54.836184)"
                 id="g3311">
                <text
                   xml:space="preserve"
                   style="font-size:16px;font-style:normal;font-weight:normal;line-height:125%;letter-spacing:0px;word-spacing:0px;fill:#f9f9f9;fill-opacity:1;stroke:none;font-family:Sans"
                   x="-288.1496"
                   y="581.69092"
                   id="text3149"
                   sodipodi:linespacing="125%"><tspan
                     sodipodi:role="line"
                     id="tspan3151"
                     x="-288.1496"
                     y="581.69092">Paniers thématiques</tspan></text>
                <g
                   style="opacity:0.87000002"
                   id="g4005"
                   transform="translate(-282.48161,-24.306238)">
                  <flowRoot
                     transform="translate(92.791251,316.49448)"
                     style="font-size:16px;font-style:normal;font-weight:normal;line-height:125%;letter-spacing:0px;word-spacing:0px;fill:#f9f9f9;fill-opacity:1;stroke:none;font-family:Sans"
                     id="flowRoot3121"
                     xml:space="preserve"><flowRegion
                       id="flowRegion3123"><rect
                         style="fill:#f9f9f9"
                         y="273.08716"
                         x="315.1676"
                         height="54.548237"
                         width="218.19295"
                         id="rect3125" /></flowRegion><flowPara
                       id="flowPara3127">Sans engagement</flowPara></flowRoot>                </g>
                <g
                   style="opacity:0.87000002"
                   id="g4000"
                   transform="translate(-6.9127697,-32.711427)">
                  <text
                     sodipodi:linespacing="125%"
                     id="text3137"
                     y="615.42188"
                     x="762.34094"
                     style="font-size:16px;font-style:normal;font-weight:normal;line-height:125%;letter-spacing:0px;word-spacing:0px;fill:#f9f9f9;fill-opacity:1;stroke:none;font-family:Sans"
                     xml:space="preserve"><tspan
                       y="615.42188"
                       x="762.34094"
                       id="tspan3139"
                       sodipodi:role="line">Écologique</tspan></text>
                </g>
                <g
                   transform="translate(-37.881087,-30.965578)"
                   style="opacity:0.87000002"
                   id="g4012">
                  <text
                     sodipodi:linespacing="125%"
                     id="text3153"
                     y="612.65649"
                     x="595.11871"
                     style="font-size:16px;font-style:normal;font-weight:normal;line-height:125%;letter-spacing:0px;word-spacing:0px;fill:#f9f9f9;fill-opacity:1;stroke:none;font-family:Sans"
                     xml:space="preserve"><tspan
                       y="612.65649"
                       x="595.11871"
                       id="tspan3155"
                       sodipodi:role="line">Très grand choix</tspan></text>
                </g>
                <g
                   style="opacity:0.87000002"
                   id="g4029"
                   transform="translate(462.72915,-183.109)">
                  <flowRoot
                     transform="translate(-189.78364,481.50037)"
                     style="font-size:16px;font-style:normal;font-weight:normal;line-height:125%;letter-spacing:0px;word-spacing:0px;fill:#f9f9f9;fill-opacity:1;stroke:none;font-family:Sans"
                     id="flowRoot3113"
                     xml:space="preserve"><flowRegion
                       id="flowRegion3115"><rect
                         style="fill:#f9f9f9"
                         y="267.02625"
                         x="64.649765"
                         height="53.538086"
                         width="218.19295"
                         id="rect3117" /></flowRegion><flowPara
                       id="flowPara3119">Frais de port inclus</flowPara></flowRoot>                </g>
                <g
                   style="opacity:0.87000002"
                   id="g4017"
                   transform="translate(-21.668238,-151.23428)">
                  <flowRoot
                     transform="translate(-109.77518,406.50846)"
                     style="font-size:16px;font-style:normal;font-weight:normal;line-height:125%;letter-spacing:0px;word-spacing:0px;fill:#f9f9f9;fill-opacity:1;stroke:none;font-family:Sans"
                     id="flowRoot3129"
                     xml:space="preserve"><flowRegion
                       id="flowRegion3131"><rect
                         style="fill:#f9f9f9"
                         y="310.46283"
                         x="73.741135"
                         height="50.507626"
                         width="218.19295"
                         id="rect3133" /></flowRegion><flowPara
                       id="flowPara3135">Prix dégressifs</flowPara></flowRoot>                </g>
                <g
                   style="opacity:0.87000002"
                   id="g4024"
                   transform="translate(455.91839,-177.59711)">
                  <text
                     sodipodi:linespacing="125%"
                     id="text3141"
                     y="760.30756"
                     x="453.46597"
                     style="font-size:16px;font-style:normal;font-weight:normal;line-height:125%;letter-spacing:0px;word-spacing:0px;fill:#f9f9f9;fill-opacity:1;stroke:none;font-family:Sans"
                     xml:space="preserve"><tspan
                       y="760.30756"
                       x="453.46597"
                       id="tspan3143"
                       sodipodi:role="line">Éthique</tspan></text>
                </g>
                <g
                   transform="translate(344.18816,-183.10901)"
                   style="opacity:0.87000002"
                   id="g4036">
                  <text
                     sodipodi:linespacing="125%"
                     id="text3145"
                     y="764.23352"
                     x="694.06647"
                     style="font-size:16px;font-style:normal;font-weight:normal;line-height:125%;letter-spacing:0px;word-spacing:0px;fill:#f9f9f9;fill-opacity:1;stroke:none;font-family:Sans"
                     xml:space="preserve"><tspan
                       y="764.23352"
                       x="694.06647"
                       id="tspan3147"
                       sodipodi:role="line">Vegan</tspan></text>
                </g>
              </g>
              <rect
                 y="254.08821"
                 x="-78.681854"
                 height="197.84724"
                 width="1148.1499"
                 id="rect3059"
                 style="opacity:0.5;fill:#a10d5a;fill-opacity:0.17488792;fill-rule:nonzero;stroke:#000000;stroke-width:3.01229167;stroke-linejoin:miter;stroke-miterlimit:4;stroke-opacity:1;stroke-dasharray:none" />
            </g>
          </g>
        </g>
      </g>
    </g>
  </g>
</svg>
